<svg width="48" height="48" viewBox="0 0 48 48" fill="none" xmlns="http://www.w3.org/2000/svg">
<path d="M8.52015 19.44C9.28815 19.504 10.0722 19.712 10.8722 20.064C11.5761 20.384 12.3362 20.864 13.1522 21.504C13.9682 22.144 14.7761 23.024 15.5761 24.144C16.3121 25.232 17.0161 26.272 17.6881 27.264C18.3601 28.256 19.0082 29.256 19.6322 30.264C20.2562 31.272 20.8801 32.304 21.5042 33.36C22.1281 34.416 22.7602 35.552 23.4002 36.768C24.2322 38.304 25.3282 39.424 26.6882 40.128C28.0482 40.832 29.6722 41.2 31.5602 41.232C32.7122 41.232 33.8562 41.136 34.9922 40.944C36.1282 40.752 37.2162 40.464 38.2562 40.08C39.2962 39.696 40.2642 39.232 41.1602 38.688C42.0562 38.144 42.8242 37.52 43.4642 36.816C45.1602 34.96 46.0002 33.304 45.9842 31.848C45.9682 30.392 45.1122 29.296 43.4162 28.56C42.6482 28.208 41.8562 27.928 41.0402 27.72C40.2242 27.512 39.4802 27.344 38.8082 27.216C38.0082 27.088 37.2402 26.992 36.5042 26.928C36.0562 27.472 35.4802 27.92 34.7762 28.272C34.1682 28.592 33.4082 28.84 32.4962 29.016C31.5842 29.192 30.4722 29.168 29.1602 28.944C28.1042 28.784 27.1682 28.488 26.3522 28.056C25.5362 27.624 24.7682 27.088 24.0482 26.448C23.3282 25.808 22.6241 25.072 21.9361 24.24C21.2481 23.408 20.5202 22.512 19.7522 21.552C19.2402 20.944 18.6482 20.168 17.9762 19.224C17.3041 18.28 16.6161 17.288 15.9121 16.248C15.2081 15.208 14.5042 14.16 13.8001 13.104C13.0961 12.048 12.4722 11.088 11.9282 10.224C11.3521 9.328 10.8162 8.6 10.3202 8.04C9.82415 7.48 9.36015 7.048 8.92815 6.744C8.49615 6.44 8.08015 6.24 7.68015 6.144C7.28015 6.048 6.88815 6 6.50415 6C6.24815 6 5.87215 6.24 5.37615 6.72C4.88015 7.2 4.39215 7.832 3.91215 8.616C3.43215 9.4 3.00015 10.288 2.61615 11.28C2.23215 12.272 2.04015 13.28 2.04015 14.304C2.04015 15.168 2.10415 15.88 2.23215 16.44C2.36015 17 2.51215 17.504 2.68815 17.952C2.86415 18.4 3.03215 18.832 3.19215 19.248C3.35215 19.664 3.46415 20.16 3.52815 20.736C3.56015 21.152 3.61615 21.912 3.69615 23.016C3.77615 24.12 3.86415 25.392 3.96015 26.832C4.05615 28.272 4.16015 29.792 4.27215 31.392C4.38415 32.992 4.48015 34.488 4.56015 35.88C4.64015 37.272 4.71215 38.472 4.77615 39.48C4.84015 40.488 4.87215 41.104 4.87215 41.328H6.74415L6.79215 26.928C6.79215 25.84 6.77615 24.832 6.74415 23.904C6.71215 22.976 6.73615 22.184 6.81615 21.528C6.89615 20.872 7.06415 20.36 7.32015 19.992C7.57615 19.624 7.97615 19.44 8.52015 19.44Z" fill="#FF1B6D"/>
</svg>
