<svg width="26" height="25" viewBox="0 0 26 25" fill="none" xmlns="http://www.w3.org/2000/svg">
<g clip-path="url(#clip0_621_1233)">
<path d="M22.7105 16.9536V8.41746C22.7105 7.53807 22.2405 6.72312 21.4786 6.28342L14.0872 2.01534C13.7125 1.79928 13.2877 1.68555 12.8553 1.68555C12.4228 1.68555 11.998 1.79928 11.6233 2.01534L4.23191 6.28342C3.85744 6.49984 3.54649 6.81095 3.33026 7.18552C3.11403 7.5601 3.00014 7.98496 3 8.41746V16.9536C3 17.833 3.47002 18.648 4.23191 19.0877L11.6233 23.3557C11.998 23.5718 12.4228 23.6855 12.8553 23.6855C13.2877 23.6855 13.7125 23.5718 14.0872 23.3557L21.4786 19.0877C21.8531 18.8713 22.164 18.5601 22.3802 18.1856C22.5965 17.811 22.7104 17.3861 22.7105 16.9536Z" fill="url(#paint0_linear_621_1233)"/>
<path d="M11.5641 14.5765L16.4331 9.93975C16.5188 9.85875 16.6204 9.79461 16.732 9.751C16.8437 9.70738 16.9633 9.68515 17.084 9.68555C17.2048 9.68596 17.3242 9.709 17.4356 9.75337C17.5469 9.79773 17.648 9.86255 17.7331 9.94412C17.8181 10.0257 17.8855 10.1224 17.9313 10.2288C17.9771 10.3351 18.0004 10.449 18 10.564C17.9996 10.6789 17.9754 10.7927 17.9288 10.8987C17.8822 11.0048 17.8141 11.101 17.7285 11.182L12.2164 16.4311C12.0442 16.5941 11.8114 16.6855 11.5687 16.6855C11.326 16.6855 11.0931 16.5941 10.921 16.4311L8.32112 13.9553C8.22495 13.8769 8.14684 13.7804 8.0917 13.6718C8.03656 13.5633 8.00557 13.4451 8.00068 13.3246C7.9958 13.2041 8.01712 13.084 8.0633 12.9717C8.10949 12.8594 8.17955 12.7575 8.26908 12.6722C8.35861 12.587 8.46568 12.5202 8.58357 12.4763C8.70146 12.4323 8.82762 12.412 8.95415 12.4166C9.08067 12.4213 9.20481 12.4508 9.31879 12.5033C9.43276 12.5558 9.53411 12.6302 9.61647 12.7218L11.5641 14.5765Z" fill="white"/>
</g>
<defs>
<linearGradient id="paint0_linear_621_1233" x1="12.8553" y1="1.68555" x2="12.8553" y2="23.6855" gradientUnits="userSpaceOnUse">
<stop stop-color="#FF71B5"/>
<stop offset="1" stop-color="#FF1CA4"/>
</linearGradient>
<clipPath id="clip0_621_1233">
<rect width="25.4118" height="24" fill="white" transform="translate(0 0.685547)"/>
</clipPath>
</defs>
</svg>
