<svg width="176" height="48" viewBox="0 0 176 48" fill="none" xmlns="http://www.w3.org/2000/svg">
<path d="M8.52015 19.44C9.28815 19.504 10.0722 19.712 10.8722 20.064C11.5761 20.384 12.3362 20.864 13.1522 21.504C13.9682 22.144 14.7761 23.024 15.5761 24.144C16.3121 25.232 17.0161 26.272 17.6881 27.264C18.3601 28.256 19.0082 29.256 19.6322 30.264C20.2562 31.272 20.8801 32.304 21.5042 33.36C22.1281 34.416 22.7602 35.552 23.4002 36.768C24.2322 38.304 25.3282 39.424 26.6882 40.128C28.0482 40.832 29.6722 41.2 31.5602 41.232C32.7122 41.232 33.8562 41.136 34.9922 40.944C36.1282 40.752 37.2162 40.464 38.2562 40.08C39.2962 39.696 40.2642 39.232 41.1602 38.688C42.0562 38.144 42.8242 37.52 43.4642 36.816C45.1602 34.96 46.0002 33.304 45.9842 31.848C45.9682 30.392 45.1122 29.296 43.4162 28.56C42.6482 28.208 41.8562 27.928 41.0402 27.72C40.2242 27.512 39.4802 27.344 38.8082 27.216C38.0082 27.088 37.2402 26.992 36.5042 26.928C36.0562 27.472 35.4802 27.92 34.7762 28.272C34.1682 28.592 33.4082 28.84 32.4962 29.016C31.5842 29.192 30.4722 29.168 29.1602 28.944C28.1042 28.784 27.1682 28.488 26.3522 28.056C25.5362 27.624 24.7682 27.088 24.0482 26.448C23.3282 25.808 22.6241 25.072 21.9361 24.24C21.2481 23.408 20.5202 22.512 19.7522 21.552C19.2402 20.944 18.6482 20.168 17.9762 19.224C17.3041 18.28 16.6161 17.288 15.9121 16.248C15.2081 15.208 14.5042 14.16 13.8001 13.104C13.0961 12.048 12.4722 11.088 11.9282 10.224C11.3521 9.328 10.8162 8.6 10.3202 8.04C9.82415 7.48 9.36015 7.048 8.92815 6.744C8.49615 6.44 8.08015 6.24 7.68015 6.144C7.28015 6.048 6.88815 6 6.50415 6C6.24815 6 5.87215 6.24 5.37615 6.72C4.88015 7.2 4.39215 7.832 3.91215 8.616C3.43215 9.4 3.00015 10.288 2.61615 11.28C2.23215 12.272 2.04015 13.28 2.04015 14.304C2.04015 15.168 2.10415 15.88 2.23215 16.44C2.36015 17 2.51215 17.504 2.68815 17.952C2.86415 18.4 3.03215 18.832 3.19215 19.248C3.35215 19.664 3.46415 20.16 3.52815 20.736C3.56015 21.152 3.61615 21.912 3.69615 23.016C3.77615 24.12 3.86415 25.392 3.96015 26.832C4.05615 28.272 4.16015 29.792 4.27215 31.392C4.38415 32.992 4.48015 34.488 4.56015 35.88C4.64015 37.272 4.71215 38.472 4.77615 39.48C4.84015 40.488 4.87215 41.104 4.87215 41.328H6.74415L6.79215 26.928C6.79215 25.84 6.77615 24.832 6.74415 23.904C6.71215 22.976 6.73615 22.184 6.81615 21.528C6.89615 20.872 7.06415 20.36 7.32015 19.992C7.57615 19.624 7.97615 19.44 8.52015 19.44Z" fill="#FF1B6D"/>
<path d="M58 31.5904C56.8954 31.5904 56 30.6949 56 29.5904V12C56 10.8954 56.8954 10 58 10H58.5648C59.6693 10 60.5648 10.8954 60.5648 12V25.8268C60.5648 26.9314 61.4602 27.8268 62.5648 27.8268H67.939C68.9783 27.8268 69.8208 28.6693 69.8208 29.7086C69.8208 30.7479 68.9783 31.5904 67.939 31.5904H58Z" fill="white"/>
<path d="M80.0757 31.9066C78.4381 31.9066 77.022 31.5587 75.8272 30.863C74.6394 30.1601 73.7223 29.1832 73.0757 27.9322C72.4291 26.6742 72.1058 25.2159 72.1058 23.5572C72.1058 21.8845 72.4291 20.4227 73.0757 19.1717C73.7223 17.9137 74.6394 16.9367 75.8272 16.241C77.022 15.5382 78.4381 15.1867 80.0757 15.1867C81.7132 15.1867 83.1259 15.5382 84.3136 16.241C85.5084 16.9367 86.4291 17.9137 87.0757 19.1717C87.7223 20.4227 88.0456 21.8845 88.0456 23.5572C88.0456 25.2159 87.7223 26.6742 87.0757 27.9322C86.4291 29.1832 85.5084 30.1601 84.3136 30.863C83.1259 31.5587 81.7132 31.9066 80.0757 31.9066ZM80.0968 28.4277C80.8417 28.4277 81.4637 28.2169 81.9627 27.7952C82.4617 27.3665 82.8377 26.7831 83.0907 26.0452C83.3508 25.3072 83.4808 24.4674 83.4808 23.5256C83.4808 22.5838 83.3508 21.744 83.0907 21.006C82.8377 20.2681 82.4617 19.6847 81.9627 19.256C81.4637 18.8273 80.8417 18.613 80.0968 18.613C79.3448 18.613 78.7122 18.8273 78.1992 19.256C77.6931 19.6847 77.3101 20.2681 77.0501 21.006C76.7971 21.744 76.6706 22.5838 76.6706 23.5256C76.6706 24.4674 76.7971 25.3072 77.0501 26.0452C77.3101 26.7831 77.6931 27.3665 78.1992 27.7952C78.7122 28.2169 79.3448 28.4277 80.0968 28.4277Z" fill="white"/>
<path d="M98.2609 38C96.8061 38 95.5586 37.7997 94.5185 37.3991C93.4853 37.0055 92.663 36.4679 92.0516 35.7861C91.9486 35.6713 91.8517 35.5541 91.7608 35.4345C91.0557 34.5059 91.8478 33.3551 93.0033 33.1997L93.9287 33.0752C94.5657 32.9895 95.1661 33.3756 95.6148 33.8358C95.8889 34.117 96.2509 34.3419 96.7007 34.5105C97.1575 34.6862 97.7127 34.7741 98.3663 34.7741C99.3433 34.7741 100.148 34.5351 100.781 34.0572C101.42 33.5863 101.74 32.7957 101.74 31.6852V28.8376C101.74 28.7743 101.688 28.7229 101.625 28.7229C101.58 28.7229 101.538 28.7499 101.519 28.7913C101.323 29.2159 101.038 29.6183 100.665 29.9985C100.271 30.3991 99.7649 30.7259 99.1465 30.9789C98.528 31.2319 97.79 31.3584 96.9326 31.3584C95.7167 31.3584 94.6098 31.0773 93.6118 30.5151C92.6209 29.9458 91.8302 29.0778 91.2398 27.9111C90.6565 26.7374 90.3648 25.2545 90.3648 23.4623C90.3648 21.628 90.6635 20.0959 91.2609 18.866C91.8583 17.636 92.6525 16.7154 93.6435 16.1039C94.6414 15.4925 95.7343 15.1867 96.9221 15.1867C97.8287 15.1867 98.5877 15.3414 99.1992 15.6506C99.8106 15.9528 100.303 16.3323 100.675 16.7892C101.037 17.2186 101.32 17.6417 101.522 18.0583C101.539 18.0943 101.576 18.1175 101.616 18.1175C101.673 18.1175 101.719 18.0713 101.719 18.0144V16.7575C101.719 16.0065 102.328 15.3976 103.079 15.3976H104.178C105.283 15.3976 106.178 16.293 106.178 17.3976V31.7485C106.178 33.126 105.841 34.2786 105.166 35.2063C104.491 36.134 103.557 36.8298 102.362 37.2937C101.174 37.7646 99.8071 38 98.2609 38ZM98.3558 27.9849C99.0797 27.9849 99.6911 27.8057 100.19 27.4473C100.696 27.0818 101.083 26.5617 101.35 25.887C101.624 25.2053 101.761 24.3901 101.761 23.4413C101.761 22.4925 101.627 21.6702 101.36 20.9744C101.093 20.2716 100.707 19.7269 100.201 19.3404C99.6947 18.9538 99.0797 18.7605 98.3558 18.7605C97.6178 18.7605 96.9959 18.9608 96.4898 19.3614C95.9838 19.755 95.6008 20.3032 95.3407 21.006C95.0807 21.7088 94.9507 22.5206 94.9507 23.4413C94.9507 24.376 95.0807 25.1842 95.3407 25.866C95.6078 26.5407 95.9908 27.0643 96.4898 27.4367C96.9959 27.8022 97.6178 27.9849 98.3558 27.9849Z" fill="white"/>
<path d="M117.068 31.9066C115.431 31.9066 114.014 31.5587 112.82 30.863C111.632 30.1601 110.715 29.1832 110.068 27.9322C109.422 26.6742 109.098 25.2159 109.098 23.5572C109.098 21.8845 109.422 20.4227 110.068 19.1717C110.715 17.9137 111.632 16.9367 112.82 16.241C114.014 15.5382 115.431 15.1867 117.068 15.1867C118.706 15.1867 120.118 15.5382 121.306 16.241C122.501 16.9367 123.422 17.9137 124.068 19.1717C124.715 20.4227 125.038 21.8845 125.038 23.5572C125.038 25.2159 124.715 26.6742 124.068 27.9322C123.422 29.1832 122.501 30.1601 121.306 30.863C120.118 31.5587 118.706 31.9066 117.068 31.9066ZM117.089 28.4277C117.834 28.4277 118.456 28.2169 118.955 27.7952C119.454 27.3665 119.83 26.7831 120.083 26.0452C120.343 25.3072 120.473 24.4674 120.473 23.5256C120.473 22.5838 120.343 21.744 120.083 21.006C119.83 20.2681 119.454 19.6847 118.955 19.256C118.456 18.8273 117.834 18.613 117.089 18.613C116.337 18.613 115.705 18.8273 115.192 19.256C114.686 19.6847 114.303 20.2681 114.043 21.006C113.79 21.744 113.663 22.5838 113.663 23.5256C113.663 24.4674 113.79 25.3072 114.043 26.0452C114.303 26.7831 114.686 27.3665 115.192 27.7952C115.705 28.2169 116.337 28.4277 117.089 28.4277Z" fill="white"/>
<path d="M129.928 15.3976C130.668 15.3976 131.347 15.8079 131.691 16.4629L132.355 17.7281C133.1 19.1468 135.128 19.1571 135.887 17.7461L136.592 16.4366C136.936 15.7967 137.604 15.3976 138.331 15.3976C139.853 15.3976 140.803 17.0461 140.04 18.3628L137.655 22.4778C137.292 23.1052 137.296 23.8801 137.667 24.5032L140.121 28.6277C140.899 29.9344 139.957 31.5904 138.437 31.5904C137.733 31.5904 137.083 31.213 136.734 30.6016L135.856 29.0621C135.085 27.7115 133.136 27.7184 132.375 29.0745L131.53 30.5792C131.18 31.2037 130.519 31.5904 129.803 31.5904C128.268 31.5904 127.317 29.919 128.1 28.5989L130.536 24.4971C130.904 23.8772 130.91 23.1073 130.551 22.4818L128.201 18.3783C127.44 17.051 128.398 15.3976 129.928 15.3976Z" fill="white"/>
<path d="M146.975 15.3976C147.715 15.3976 148.394 15.8079 148.738 16.4629L149.402 17.7281C150.147 19.1468 152.174 19.1571 152.934 17.7461L153.638 16.4366C153.983 15.7967 154.651 15.3976 155.378 15.3976C156.899 15.3976 157.849 17.0461 157.086 18.3628L154.702 22.4778C154.339 23.1052 154.343 23.8801 154.714 24.5032L157.168 28.6277C157.946 29.9344 157.004 31.5904 155.484 31.5904C154.78 31.5904 154.13 31.213 153.781 30.6016L152.903 29.0621C152.132 27.7115 150.182 27.7184 149.421 29.0745L148.577 30.5792C148.226 31.2037 147.566 31.5904 146.85 31.5904C145.315 31.5904 144.363 29.919 145.147 28.5989L147.583 24.4971C147.951 23.8772 147.957 23.1073 147.598 22.4818L145.247 18.3783C144.487 17.051 145.445 15.3976 146.975 15.3976Z" fill="white"/>
<path d="M164.021 15.3976C164.761 15.3976 165.44 15.8079 165.784 16.4629L166.449 17.7281C167.194 19.1468 169.221 19.1571 169.98 17.7461L170.685 16.4366C171.03 15.7967 171.698 15.3976 172.424 15.3976C173.946 15.3976 174.896 17.0461 174.133 18.3628L171.749 22.4778C171.385 23.1052 171.39 23.8801 171.761 24.5032L174.215 28.6277C174.992 29.9344 174.051 31.5904 172.53 31.5904C171.826 31.5904 171.177 31.213 170.828 30.6016L169.949 29.0621C169.179 27.7115 167.229 27.7184 166.468 29.0745L165.624 30.5792C165.273 31.2037 164.613 31.5904 163.897 31.5904C162.361 31.5904 161.41 29.919 162.194 28.5989L164.629 24.4971C164.997 23.8772 165.003 23.1073 164.645 22.4818L162.294 18.3783C161.534 17.051 162.492 15.3976 164.021 15.3976Z" fill="white"/>
</svg>
